<?xml version="1.0" encoding="UTF-8" standalone="no"?>
<!DOCTYPE svg PUBLIC "-//W3C//DTD SVG 1.1//EN"
 "http://www.w3.org/Graphics/SVG/1.1/DTD/svg11.dtd">
<!-- Generated by graphviz version 2.40.1 (0)
 -->
<!-- Title: mrpactivities Pages: 1 -->
<svg width="850pt" height="1265pt"
 viewBox="0.00 0.00 849.50 1264.50" xmlns="http://www.w3.org/2000/svg" xmlns:xlink="http://www.w3.org/1999/xlink">
<g id="graph0" class="graph" transform="scale(1 1) rotate(0) translate(4 1260.5)">
<title>mrpactivities</title>
<polygon fill="#ffffff" stroke="transparent" points="-4,4 -4,-1260.5 845.5,-1260.5 845.5,4 -4,4"/>
<g id="clust1" class="cluster">
<title>cluster_verlag</title>
<polygon fill="none" stroke="#000000" points="8,-743 8,-1066.5 206,-1066.5 206,-743 8,-743"/>
<text text-anchor="middle" x="107" y="-1046.5" font-family="Times,serif" font-size="20.00" fill="#000000">Retro digitization</text>
</g>
<g id="clust2" class="cluster">
<title>cluster_serie3</title>
<polygon fill="none" stroke="#000000" points="214,-323 214,-1066.5 544,-1066.5 544,-323 214,-323"/>
<text text-anchor="middle" x="379" y="-1046.5" font-family="Times,serif" font-size="20.00" fill="#000000">«Born digital» editing workflow</text>
</g>
<g id="clust6" class="cluster">
<title>cluster_metadata</title>
<polygon fill="none" stroke="#000000" points="552,-743 552,-982.5 796,-982.5 796,-743 552,-743"/>
<text text-anchor="middle" x="674" y="-962.5" font-family="Times,serif" font-size="20.00" fill="#000000">Auxiliary entity data</text>
</g>
<!-- start -->
<g id="node1" class="node">
<title>start</title>
<ellipse fill="#000000" stroke="#000000" cx="443" cy="-1238.5" rx="18" ry="18"/>
<text text-anchor="middle" x="443" y="-1234.8" font-family="Times,serif" font-size="14.00" fill="#000000">.</text>
</g>
<!-- selectwf -->
<g id="node3" class="node">
<title>selectwf</title>
<polygon fill="none" stroke="#000000" points="385,-1184.5 299.5367,-1166.5 385,-1148.5 470.4633,-1166.5 385,-1184.5"/>
<text text-anchor="middle" x="385" y="-1162.8" font-family="Times,serif" font-size="14.00" fill="#000000">select process</text>
</g>
<!-- start&#45;&gt;selectwf -->
<g id="edge1" class="edge">
<title>start&#45;&gt;selectwf</title>
<path fill="none" stroke="#000000" d="M443,-1220.3314C443,-1220.3314 443,-1182.5612 443,-1182.5612"/>
<polygon fill="#000000" stroke="#000000" points="446.5001,-1182.5611 443,-1172.5612 439.5001,-1182.5612 446.5001,-1182.5611"/>
</g>
<!-- datamodel -->
<g id="node4" class="node">
<title>datamodel</title>
<path fill="none" stroke="#000000" d="M585,-1112.5C585,-1112.5 511,-1112.5 511,-1112.5 505,-1112.5 499,-1106.5 499,-1100.5 499,-1100.5 499,-1086.5 499,-1086.5 499,-1080.5 505,-1074.5 511,-1074.5 511,-1074.5 585,-1074.5 585,-1074.5 591,-1074.5 597,-1080.5 597,-1086.5 597,-1086.5 597,-1100.5 597,-1100.5 597,-1106.5 591,-1112.5 585,-1112.5"/>
<text text-anchor="middle" x="548" y="-1097.3" font-family="Times,serif" font-size="14.00" fill="#000000">do</text>
<text text-anchor="middle" x="548" y="-1082.3" font-family="Times,serif" font-size="14.00" fill="#000000">data modeling</text>
</g>
<!-- start&#45;&gt;datamodel -->
<g id="edge2" class="edge">
<title>start&#45;&gt;datamodel</title>
<path fill="none" stroke="#000000" d="M461.2896,-1238C491.3728,-1238 548,-1238 548,-1238 548,-1238 548,-1122.6885 548,-1122.6885"/>
<polygon fill="#000000" stroke="#000000" points="551.5001,-1122.6884 548,-1112.6885 544.5001,-1122.6885 551.5001,-1122.6884"/>
</g>
<!-- end -->
<g id="node2" class="node">
<title>end</title>
<ellipse fill="#000000" stroke="#000000" cx="674" cy="-22" rx="18" ry="18"/>
<ellipse fill="none" stroke="#000000" cx="674" cy="-22" rx="22" ry="22"/>
<text text-anchor="middle" x="674" y="-18.3" font-family="Times,serif" font-size="14.00" fill="#000000">.</text>
</g>
<!-- nobook -->
<g id="node5" class="node">
<title>nobook</title>
<polygon fill="none" stroke="#000000" points="439.5,-1112.5 330.5,-1112.5 330.5,-1074.5 439.5,-1074.5 439.5,-1112.5"/>
<text text-anchor="middle" x="385" y="-1097.3" font-family="Times,serif" font-size="14.00" fill="#000000">no book edition</text>
<text text-anchor="middle" x="385" y="-1082.3" font-family="Times,serif" font-size="14.00" fill="#000000">available</text>
</g>
<!-- selectwf&#45;&gt;nobook -->
<g id="edge3" class="edge">
<title>selectwf:s&#45;&gt;nobook</title>
<path fill="none" stroke="#000000" d="M385,-1148.5C385,-1148.5 385,-1122.7363 385,-1122.7363"/>
<polygon fill="#000000" stroke="#000000" points="388.5001,-1122.7363 385,-1112.7363 381.5001,-1122.7364 388.5001,-1122.7363"/>
</g>
<!-- book -->
<g id="node6" class="node">
<title>book</title>
<polygon fill="none" stroke="#000000" points="235,-1112.5 145,-1112.5 145,-1074.5 235,-1074.5 235,-1112.5"/>
<text text-anchor="middle" x="190" y="-1097.3" font-family="Times,serif" font-size="14.00" fill="#000000">book edition</text>
<text text-anchor="middle" x="190" y="-1082.3" font-family="Times,serif" font-size="14.00" fill="#000000">available</text>
</g>
<!-- selectwf&#45;&gt;book -->
<g id="edge5" class="edge">
<title>selectwf:w&#45;&gt;book</title>
<path fill="none" stroke="#000000" d="M315.0092,-1166.5C315.0092,-1166.5 315.0092,-1093 315.0092,-1093 315.0092,-1093 245.1312,-1093 245.1312,-1093"/>
<polygon fill="#000000" stroke="#000000" points="245.1312,-1089.5001 235.1312,-1093 245.1312,-1096.5001 245.1312,-1089.5001"/>
</g>
<!-- collectNE -->
<g id="node25" class="node">
<title>collectNE</title>
<path fill="none" stroke="#000000" d="M666,-944.5C666,-944.5 572,-944.5 572,-944.5 566,-944.5 560,-938.5 560,-932.5 560,-932.5 560,-918.5 560,-918.5 560,-912.5 566,-906.5 572,-906.5 572,-906.5 666,-906.5 666,-906.5 672,-906.5 678,-912.5 678,-918.5 678,-918.5 678,-932.5 678,-932.5 678,-938.5 672,-944.5 666,-944.5"/>
<text text-anchor="middle" x="619" y="-929.3" font-family="Times,serif" font-size="14.00" fill="#000000">collect</text>
<text text-anchor="middle" x="619" y="-914.3" font-family="Times,serif" font-size="14.00" fill="#000000">named entity data</text>
</g>
<!-- datamodel&#45;&gt;collectNE -->
<g id="edge32" class="edge">
<title>datamodel&#45;&gt;collectNE</title>
<path fill="none" stroke="#000000" d="M578.5,-1074.2283C578.5,-1074.2283 578.5,-954.547 578.5,-954.547"/>
<polygon fill="#000000" stroke="#000000" points="582.0001,-954.5469 578.5,-944.547 575.0001,-954.547 582.0001,-954.5469"/>
</g>
<!-- sources -->
<g id="node7" class="node">
<title>sources</title>
<path fill="none" stroke="#000000" d="M495,-1028.5C495,-1028.5 275,-1028.5 275,-1028.5 269,-1028.5 263,-1022.5 263,-1016.5 263,-1016.5 263,-1002.5 263,-1002.5 263,-996.5 269,-990.5 275,-990.5 275,-990.5 495,-990.5 495,-990.5 501,-990.5 507,-996.5 507,-1002.5 507,-1002.5 507,-1016.5 507,-1016.5 507,-1022.5 501,-1028.5 495,-1028.5"/>
<text text-anchor="middle" x="385" y="-1013.3" font-family="Times,serif" font-size="14.00" fill="#000000">get original document</text>
<text text-anchor="middle" x="385" y="-998.3" font-family="Times,serif" font-size="14.00" fill="#000000">(paper, held by Austrian State Archives)</text>
</g>
<!-- nobook&#45;&gt;sources -->
<g id="edge4" class="edge">
<title>nobook&#45;&gt;sources</title>
<path fill="none" stroke="#000000" d="M385,-1074.4391C385,-1074.4391 385,-1038.7762 385,-1038.7762"/>
<polygon fill="#000000" stroke="#000000" points="388.5001,-1038.7762 385,-1028.7762 381.5001,-1038.7763 388.5001,-1038.7762"/>
</g>
<!-- books -->
<g id="node8" class="node">
<title>books</title>
<path fill="none" stroke="#000000" d="M184.5,-1028.5C184.5,-1028.5 39.5,-1028.5 39.5,-1028.5 33.5,-1028.5 27.5,-1022.5 27.5,-1016.5 27.5,-1016.5 27.5,-1002.5 27.5,-1002.5 27.5,-996.5 33.5,-990.5 39.5,-990.5 39.5,-990.5 184.5,-990.5 184.5,-990.5 190.5,-990.5 196.5,-996.5 196.5,-1002.5 196.5,-1002.5 196.5,-1016.5 196.5,-1016.5 196.5,-1022.5 190.5,-1028.5 184.5,-1028.5"/>
<text text-anchor="middle" x="112" y="-1013.3" font-family="Times,serif" font-size="14.00" fill="#000000">get printed books</text>
<text text-anchor="middle" x="112" y="-998.3" font-family="Times,serif" font-size="14.00" fill="#000000">28 vols edited 1970–2015</text>
</g>
<!-- book&#45;&gt;books -->
<g id="edge6" class="edge">
<title>book&#45;&gt;books</title>
<path fill="none" stroke="#000000" d="M170.75,-1074.4391C170.75,-1074.4391 170.75,-1038.7762 170.75,-1038.7762"/>
<polygon fill="#000000" stroke="#000000" points="174.2501,-1038.7762 170.75,-1028.7762 167.2501,-1038.7763 174.2501,-1038.7762"/>
</g>
<!-- pics -->
<g id="node13" class="node">
<title>pics</title>
<path fill="none" stroke="#000000" d="M418,-943.5C418,-943.5 298,-943.5 298,-943.5 292,-943.5 286,-937.5 286,-931.5 286,-931.5 286,-919.5 286,-919.5 286,-913.5 292,-907.5 298,-907.5 298,-907.5 418,-907.5 418,-907.5 424,-907.5 430,-913.5 430,-919.5 430,-919.5 430,-931.5 430,-931.5 430,-937.5 424,-943.5 418,-943.5"/>
<text text-anchor="middle" x="358" y="-921.8" font-family="Times,serif" font-size="14.00" fill="#000000">photograph document</text>
</g>
<!-- sources&#45;&gt;pics -->
<g id="edge35" class="edge">
<title>sources&#45;&gt;pics</title>
<path fill="none" stroke="#000000" d="M358,-990.4391C358,-990.4391 358,-953.6217 358,-953.6217"/>
<polygon fill="#000000" stroke="#000000" points="361.5001,-953.6217 358,-943.6217 354.5001,-953.6218 361.5001,-953.6217"/>
</g>
<!-- getmetadata -->
<g id="node20" class="node">
<title>getmetadata</title>
<path fill="none" stroke="#000000" d="M524,-943.5C524,-943.5 460,-943.5 460,-943.5 454,-943.5 448,-937.5 448,-931.5 448,-931.5 448,-919.5 448,-919.5 448,-913.5 454,-907.5 460,-907.5 460,-907.5 524,-907.5 524,-907.5 530,-907.5 536,-913.5 536,-919.5 536,-919.5 536,-931.5 536,-931.5 536,-937.5 530,-943.5 524,-943.5"/>
<text text-anchor="middle" x="492" y="-921.8" font-family="Times,serif" font-size="14.00" fill="#000000">get metadata</text>
</g>
<!-- sources&#45;&gt;getmetadata -->
<g id="edge8" class="edge">
<title>sources&#45;&gt;getmetadata</title>
<path fill="none" stroke="#000000" d="M477.5,-990.4391C477.5,-990.4391 477.5,-953.6217 477.5,-953.6217"/>
<polygon fill="#000000" stroke="#000000" points="481.0001,-953.6217 477.5,-943.6217 474.0001,-953.6218 481.0001,-953.6217"/>
</g>
<!-- pdfs -->
<g id="node9" class="node">
<title>pdfs</title>
<path fill="none" stroke="#000000" d="M146,-952C146,-952 72,-952 72,-952 66,-952 60,-946 60,-940 60,-940 60,-911 60,-911 60,-905 66,-899 72,-899 72,-899 146,-899 146,-899 152,-899 158,-905 158,-911 158,-911 158,-940 158,-940 158,-946 152,-952 146,-952"/>
<text text-anchor="middle" x="109" y="-936.8" font-family="Times,serif" font-size="14.00" fill="#000000">scan to</text>
<text text-anchor="middle" x="109" y="-921.8" font-family="Times,serif" font-size="14.00" fill="#000000">PDF format</text>
<text text-anchor="middle" x="109" y="-906.8" font-family="Times,serif" font-size="14.00" fill="#000000">~18000 pages</text>
</g>
<!-- books&#45;&gt;pdfs -->
<g id="edge37" class="edge">
<title>books&#45;&gt;pdfs</title>
<path fill="none" stroke="#000000" d="M109,-990.4391C109,-990.4391 109,-962.1268 109,-962.1268"/>
<polygon fill="#000000" stroke="#000000" points="112.5001,-962.1268 109,-952.1268 105.5001,-962.1268 112.5001,-962.1268"/>
</g>
<!-- xml -->
<g id="node10" class="node">
<title>xml</title>
<path fill="none" stroke="#000000" d="M186,-863C186,-863 28,-863 28,-863 22,-863 16,-857 16,-851 16,-851 16,-837 16,-837 16,-831 22,-825 28,-825 28,-825 186,-825 186,-825 192,-825 198,-831 198,-837 198,-837 198,-851 198,-851 198,-857 192,-863 186,-863"/>
<text text-anchor="middle" x="107" y="-847.8" font-family="Times,serif" font-size="14.00" fill="#000000">publish as generic XML data</text>
<text text-anchor="middle" x="107" y="-832.8" font-family="Times,serif" font-size="14.00" fill="#000000">hw.oeaw.ac.at/ministerrat/</text>
</g>
<!-- pdfs&#45;&gt;xml -->
<g id="edge38" class="edge">
<title>pdfs&#45;&gt;xml</title>
<path fill="none" stroke="#000000" d="M109,-898.8139C109,-898.8139 109,-873.2531 109,-873.2531"/>
<polygon fill="#000000" stroke="#000000" points="112.5001,-873.253 109,-863.2531 105.5001,-873.2531 112.5001,-873.253"/>
</g>
<!-- xmlfile -->
<g id="node11" class="node">
<title>xmlfile</title>
<polygon fill="none" stroke="#000000" points="139.5,-789 74.5,-789 74.5,-751 145.5,-751 145.5,-783 139.5,-789"/>
<polyline fill="none" stroke="#000000" points="139.5,-789 139.5,-783 "/>
<polyline fill="none" stroke="#000000" points="145.5,-783 139.5,-783 "/>
<text text-anchor="middle" x="110" y="-773.8" font-family="Times,serif" font-size="14.00" fill="#000000">generic</text>
<text text-anchor="middle" x="110" y="-758.8" font-family="Times,serif" font-size="14.00" fill="#000000">XML file</text>
</g>
<!-- xml&#45;&gt;xmlfile -->
<g id="edge7" class="edge">
<title>xml&#45;&gt;xmlfile</title>
<path fill="none" stroke="#000000" d="M110,-824.9432C110,-824.9432 110,-799.2495 110,-799.2495"/>
<polygon fill="#000000" stroke="#000000" points="113.5001,-799.2494 110,-789.2495 106.5001,-799.2495 113.5001,-799.2494"/>
</g>
<!-- transformxml2tei2 -->
<g id="node34" class="node">
<title>transformxml2tei2</title>
<path fill="none" stroke="#000000" d="M180.5,-286.5C180.5,-286.5 91.5,-286.5 91.5,-286.5 85.5,-286.5 79.5,-280.5 79.5,-274.5 79.5,-274.5 79.5,-262.5 79.5,-262.5 79.5,-256.5 85.5,-250.5 91.5,-250.5 91.5,-250.5 180.5,-250.5 180.5,-250.5 186.5,-250.5 192.5,-256.5 192.5,-262.5 192.5,-262.5 192.5,-274.5 192.5,-274.5 192.5,-280.5 186.5,-286.5 180.5,-286.5"/>
<text text-anchor="middle" x="136" y="-264.8" font-family="Times,serif" font-size="14.00" fill="#000000">run custom XSL</text>
</g>
<!-- xmlfile&#45;&gt;transformxml2tei2 -->
<g id="edge40" class="edge">
<title>xmlfile&#45;&gt;transformxml2tei2</title>
<path fill="none" stroke="#000000" d="M112.5,-750.953C112.5,-750.953 112.5,-296.5058 112.5,-296.5058"/>
<polygon fill="#000000" stroke="#000000" points="116.0001,-296.5057 112.5,-286.5058 109.0001,-296.5058 116.0001,-296.5057"/>
</g>
<!-- selecttranscript -->
<g id="node12" class="node">
<title>selecttranscript</title>
<polygon fill="none" stroke="#000000" points="358,-862 270.8598,-844 358,-826 445.1402,-844 358,-862"/>
<text text-anchor="middle" x="358" y="-840.3" font-family="Times,serif" font-size="14.00" fill="#000000">select method</text>
</g>
<!-- handwritten -->
<g id="node18" class="node">
<title>handwritten</title>
<polygon fill="none" stroke="#000000" points="480.5,-789 391.5,-789 391.5,-751 480.5,-751 480.5,-789"/>
<text text-anchor="middle" x="436" y="-773.8" font-family="Times,serif" font-size="14.00" fill="#000000">handwritten/</text>
<text text-anchor="middle" x="436" y="-758.8" font-family="Times,serif" font-size="14.00" fill="#000000">fragmentary</text>
</g>
<!-- selecttranscript&#45;&gt;handwritten -->
<g id="edge10" class="edge">
<title>selecttranscript:e&#45;&gt;handwritten</title>
<path fill="none" stroke="#000000" d="M418.41,-844C418.41,-844 418.41,-799.0568 418.41,-799.0568"/>
<polygon fill="#000000" stroke="#000000" points="421.9101,-799.0568 418.41,-789.0568 414.9101,-799.0569 421.9101,-799.0568"/>
</g>
<!-- typewritten -->
<g id="node19" class="node">
<title>typewritten</title>
<polygon fill="none" stroke="#000000" points="358,-789 252,-789 252,-751 358,-751 358,-789"/>
<text text-anchor="middle" x="305" y="-773.8" font-family="Times,serif" font-size="14.00" fill="#000000">typewritten and</text>
<text text-anchor="middle" x="305" y="-758.8" font-family="Times,serif" font-size="14.00" fill="#000000">complete</text>
</g>
<!-- selecttranscript&#45;&gt;typewritten -->
<g id="edge12" class="edge">
<title>selecttranscript:w&#45;&gt;typewritten</title>
<path fill="none" stroke="#000000" d="M314.34,-844C314.34,-844 314.34,-799.0568 314.34,-799.0568"/>
<polygon fill="#000000" stroke="#000000" points="317.8401,-799.0568 314.34,-789.0568 310.8401,-799.0569 317.8401,-799.0568"/>
</g>
<!-- pics&#45;&gt;selecttranscript -->
<g id="edge36" class="edge">
<title>pics&#45;&gt;selecttranscript</title>
<path fill="none" stroke="#000000" d="M334,-907.4125C334,-907.4125 334,-867.2247 334,-867.2247"/>
<polygon fill="#000000" stroke="#000000" points="337.5001,-867.2246 334,-857.2247 330.5001,-867.2247 337.5001,-867.2246"/>
</g>
<!-- jpgfile -->
<g id="node16" class="node">
<title>jpgfile</title>
<polygon fill="none" stroke="#000000" points="530,-375.5 482,-375.5 482,-339.5 536,-339.5 536,-369.5 530,-375.5"/>
<polyline fill="none" stroke="#000000" points="530,-375.5 530,-369.5 "/>
<polyline fill="none" stroke="#000000" points="536,-369.5 530,-369.5 "/>
<text text-anchor="middle" x="509" y="-353.8" font-family="Times,serif" font-size="14.00" fill="#000000">.jpg</text>
</g>
<!-- pics&#45;&gt;jpgfile -->
<g id="edge22" class="edge">
<title>pics&#45;&gt;jpgfile</title>
<path fill="none" stroke="#000000" d="M382,-907.4504C382,-904.2949 382,-902 382,-902 382,-902 520,-902 520,-902 520,-902 520,-385.6165 520,-385.6165"/>
<polygon fill="#000000" stroke="#000000" points="523.5001,-385.6165 520,-375.6165 516.5001,-385.6165 523.5001,-385.6165"/>
</g>
<!-- docxfile0 -->
<g id="node14" class="node">
<title>docxfile0</title>
<polygon fill="none" stroke="#000000" points="432,-563 304,-563 304,-509 438,-509 438,-557 432,-563"/>
<polyline fill="none" stroke="#000000" points="432,-563 432,-557 "/>
<polyline fill="none" stroke="#000000" points="438,-557 432,-557 "/>
<text text-anchor="middle" x="371" y="-539.8" font-family="Times,serif" font-size="14.00" fill="#000000">raw MS Word .docx</text>
<text text-anchor="middle" x="371" y="-524.8" font-family="Times,serif" font-size="14.00" fill="#000000">(one file per session)</text>
</g>
<!-- enrich -->
<g id="node17" class="node">
<title>enrich</title>
<path fill="none" stroke="#000000" d="M415.5,-473C415.5,-473 326.5,-473 326.5,-473 320.5,-473 314.5,-467 314.5,-461 314.5,-461 314.5,-432 314.5,-432 314.5,-426 320.5,-420 326.5,-420 326.5,-420 415.5,-420 415.5,-420 421.5,-420 427.5,-426 427.5,-432 427.5,-432 427.5,-461 427.5,-461 427.5,-467 421.5,-473 415.5,-473"/>
<text text-anchor="middle" x="371" y="-457.8" font-family="Times,serif" font-size="14.00" fill="#000000">add id references</text>
<text text-anchor="middle" x="371" y="-442.8" font-family="Times,serif" font-size="14.00" fill="#000000">to named entities</text>
<text text-anchor="middle" x="371" y="-427.8" font-family="Times,serif" font-size="14.00" fill="#000000">via plugin</text>
</g>
<!-- docxfile0&#45;&gt;enrich -->
<g id="edge20" class="edge">
<title>docxfile0&#45;&gt;enrich</title>
<path fill="none" stroke="#000000" d="M371,-508.6607C371,-508.6607 371,-483.0577 371,-483.0577"/>
<polygon fill="#000000" stroke="#000000" points="374.5001,-483.0577 371,-473.0577 367.5001,-483.0577 374.5001,-483.0577"/>
</g>
<!-- collate -->
<g id="node23" class="node">
<title>collate</title>
<path fill="none" stroke="#000000" d="M284,-464.5C284,-464.5 254,-464.5 254,-464.5 248,-464.5 242,-458.5 242,-452.5 242,-452.5 242,-440.5 242,-440.5 242,-434.5 248,-428.5 254,-428.5 254,-428.5 284,-428.5 284,-428.5 290,-428.5 296,-434.5 296,-440.5 296,-440.5 296,-452.5 296,-452.5 296,-458.5 290,-464.5 284,-464.5"/>
<text text-anchor="middle" x="269" y="-442.8" font-family="Times,serif" font-size="14.00" fill="#000000">collate</text>
</g>
<!-- docxfile0&#45;&gt;collate -->
<g id="edge15" class="edge">
<title>docxfile0&#45;&gt;collate</title>
<path fill="none" stroke="#000000" d="M310,-508.997C310,-482.487 310,-446 310,-446 310,-446 306.1193,-446 306.1193,-446"/>
<polygon fill="#000000" stroke="#000000" points="306.1193,-442.5001 296.1193,-446 306.1192,-449.5001 306.1193,-442.5001"/>
</g>
<!-- comment -->
<g id="node24" class="node">
<title>comment</title>
<path fill="none" stroke="#000000" d="M504,-464.5C504,-464.5 458,-464.5 458,-464.5 452,-464.5 446,-458.5 446,-452.5 446,-452.5 446,-440.5 446,-440.5 446,-434.5 452,-428.5 458,-428.5 458,-428.5 504,-428.5 504,-428.5 510,-428.5 516,-434.5 516,-440.5 516,-440.5 516,-452.5 516,-452.5 516,-458.5 510,-464.5 504,-464.5"/>
<text text-anchor="middle" x="481" y="-442.8" font-family="Times,serif" font-size="14.00" fill="#000000">comment</text>
</g>
<!-- docxfile0&#45;&gt;comment -->
<g id="edge17" class="edge">
<title>docxfile0&#45;&gt;comment</title>
<path fill="none" stroke="#000000" d="M434.25,-508.997C434.25,-482.487 434.25,-446 434.25,-446 434.25,-446 435.5669,-446 435.5669,-446"/>
<polygon fill="#000000" stroke="#000000" points="435.5669,-449.5001 445.5669,-446 435.5668,-442.5001 435.5669,-449.5001"/>
</g>
<!-- docxfile -->
<g id="node15" class="node">
<title>docxfile</title>
<polygon fill="none" stroke="#000000" points="299.5,-384 232.5,-384 232.5,-331 305.5,-331 305.5,-378 299.5,-384"/>
<polyline fill="none" stroke="#000000" points="299.5,-384 299.5,-378 "/>
<polyline fill="none" stroke="#000000" points="305.5,-378 299.5,-378 "/>
<text text-anchor="middle" x="269" y="-368.8" font-family="Times,serif" font-size="14.00" fill="#000000">enriched</text>
<text text-anchor="middle" x="269" y="-353.8" font-family="Times,serif" font-size="14.00" fill="#000000">MS Word</text>
<text text-anchor="middle" x="269" y="-338.8" font-family="Times,serif" font-size="14.00" fill="#000000">.docx</text>
</g>
<!-- transformdocx -->
<g id="node32" class="node">
<title>transformdocx</title>
<path fill="none" stroke="#000000" d="M307,-295C307,-295 227,-295 227,-295 221,-295 215,-289 215,-283 215,-283 215,-254 215,-254 215,-248 221,-242 227,-242 227,-242 307,-242 307,-242 313,-242 319,-248 319,-254 319,-254 319,-283 319,-283 319,-289 313,-295 307,-295"/>
<text text-anchor="middle" x="267" y="-279.8" font-family="Times,serif" font-size="14.00" fill="#000000">run</text>
<text text-anchor="middle" x="267" y="-264.8" font-family="Times,serif" font-size="14.00" fill="#000000">DOCX TEI P5</text>
<text text-anchor="middle" x="267" y="-249.8" font-family="Times,serif" font-size="14.00" fill="#000000">(Ant/XSL)</text>
</g>
<!-- docxfile&#45;&gt;transformdocx -->
<g id="edge33" class="edge">
<title>docxfile&#45;&gt;transformdocx</title>
<path fill="none" stroke="#000000" d="M269,-330.7971C269,-330.7971 269,-305.1841 269,-305.1841"/>
<polygon fill="#000000" stroke="#000000" points="272.5001,-305.1841 269,-295.1841 265.5001,-305.1841 272.5001,-305.1841"/>
</g>
<!-- jpgfile&#45;&gt;end -->
<g id="edge46" class="edge">
<title>jpgfile&#45;&gt;end</title>
<path fill="none" stroke="#000000" d="M536.1151,-357C580.7146,-357 664.6667,-357 664.6667,-357 664.6667,-357 664.6667,-51.9525 664.6667,-51.9525"/>
<polygon fill="#000000" stroke="#000000" points="668.1668,-51.9525 664.6667,-41.9525 661.1668,-51.9526 668.1668,-51.9525"/>
</g>
<!-- enrich&#45;&gt;docxfile -->
<g id="edge21" class="edge">
<title>enrich&#45;&gt;docxfile</title>
<path fill="none" stroke="#000000" d="M314.3679,-424C305.9326,-424 300,-424 300,-424 300,-424 300,-394.1649 300,-394.1649"/>
<polygon fill="#000000" stroke="#000000" points="303.5001,-394.1649 300,-384.1649 296.5001,-394.165 303.5001,-394.1649"/>
</g>
<!-- curateNE -->
<g id="node26" class="node">
<title>curateNE</title>
<path fill="none" stroke="#000000" d="M656,-863C656,-863 582,-863 582,-863 576,-863 570,-857 570,-851 570,-851 570,-837 570,-837 570,-831 576,-825 582,-825 582,-825 656,-825 656,-825 662,-825 668,-831 668,-837 668,-837 668,-851 668,-851 668,-857 662,-863 656,-863"/>
<text text-anchor="middle" x="619" y="-847.8" font-family="Times,serif" font-size="14.00" fill="#000000">curate</text>
<text text-anchor="middle" x="619" y="-832.8" font-family="Times,serif" font-size="14.00" fill="#000000">named entities</text>
</g>
<!-- enrich&#45;&gt;curateNE -->
<g id="edge30" class="edge">
<title>enrich&#45;&gt;curateNE</title>
<path fill="none" stroke="#000000" d="M427.6684,-467C512.1607,-467 661.3333,-467 661.3333,-467 661.3333,-467 661.3333,-814.7862 661.3333,-814.7862"/>
<polygon fill="#000000" stroke="#000000" points="657.8334,-814.7862 661.3333,-824.7862 664.8334,-814.7862 657.8334,-814.7862"/>
</g>
<!-- docx -->
<g id="node21" class="node">
<title>docx</title>
<path fill="none" stroke="#000000" d="M475,-691C475,-691 393,-691 393,-691 387,-691 381,-685 381,-679 381,-679 381,-635 381,-635 381,-629 387,-623 393,-623 393,-623 475,-623 475,-623 481,-623 487,-629 487,-635 487,-635 487,-679 487,-679 487,-685 481,-691 475,-691"/>
<text text-anchor="middle" x="434" y="-675.8" font-family="Times,serif" font-size="14.00" fill="#000000">transcribe</text>
<text text-anchor="middle" x="434" y="-660.8" font-family="Times,serif" font-size="14.00" fill="#000000">manually</text>
<text text-anchor="middle" x="434" y="-645.8" font-family="Times,serif" font-size="14.00" fill="#000000">using dedicated</text>
<text text-anchor="middle" x="434" y="-630.8" font-family="Times,serif" font-size="14.00" fill="#000000">dotx template</text>
</g>
<!-- handwritten&#45;&gt;docx -->
<g id="edge11" class="edge">
<title>handwritten&#45;&gt;docx</title>
<path fill="none" stroke="#000000" d="M436,-750.8311C436,-750.8311 436,-701.3712 436,-701.3712"/>
<polygon fill="#000000" stroke="#000000" points="439.5001,-701.3711 436,-691.3712 432.5001,-701.3712 439.5001,-701.3711"/>
</g>
<!-- transkribus -->
<g id="node22" class="node">
<title>transkribus</title>
<path fill="none" stroke="#000000" d="M346.5,-683.5C346.5,-683.5 263.5,-683.5 263.5,-683.5 257.5,-683.5 251.5,-677.5 251.5,-671.5 251.5,-671.5 251.5,-642.5 251.5,-642.5 251.5,-636.5 257.5,-630.5 263.5,-630.5 263.5,-630.5 346.5,-630.5 346.5,-630.5 352.5,-630.5 358.5,-636.5 358.5,-642.5 358.5,-642.5 358.5,-671.5 358.5,-671.5 358.5,-677.5 352.5,-683.5 346.5,-683.5"/>
<text text-anchor="middle" x="305" y="-668.3" font-family="Times,serif" font-size="14.00" fill="#000000">transcribe using</text>
<text text-anchor="middle" x="305" y="-653.3" font-family="Times,serif" font-size="14.00" fill="#000000">transkribus.eu</text>
<text text-anchor="middle" x="305" y="-638.3" font-family="Times,serif" font-size="14.00" fill="#000000">(HTR)</text>
</g>
<!-- typewritten&#45;&gt;transkribus -->
<g id="edge13" class="edge">
<title>typewritten&#45;&gt;transkribus</title>
<path fill="none" stroke="#000000" d="M305,-750.8311C305,-750.8311 305,-693.9003 305,-693.9003"/>
<polygon fill="#000000" stroke="#000000" points="308.5001,-693.9003 305,-683.9003 301.5001,-693.9004 308.5001,-693.9003"/>
</g>
<!-- getmetadata&#45;&gt;docxfile -->
<g id="edge9" class="edge">
<title>getmetadata&#45;&gt;docxfile</title>
<path fill="none" stroke="#000000" d="M524,-907.2837C524,-812.2841 524,-378 524,-378 524,-378 315.5353,-378 315.5353,-378"/>
<polygon fill="#000000" stroke="#000000" points="315.5353,-374.5001 305.5353,-378 315.5352,-381.5001 315.5353,-374.5001"/>
</g>
<!-- NE -->
<g id="node30" class="node">
<title>NE</title>
<polygon fill="none" stroke="#000000" points="552,-599.5 552,-714.5 626,-714.5 626,-599.5 552,-599.5"/>
<text text-anchor="middle" x="589" y="-699.3" font-family="Times,serif" font-size="14.00" fill="#000000">event</text>
<polyline fill="none" stroke="#000000" points="552,-691.5 626,-691.5 "/>
<text text-anchor="middle" x="589" y="-676.3" font-family="Times,serif" font-size="14.00" fill="#000000">institution</text>
<polyline fill="none" stroke="#000000" points="552,-668.5 626,-668.5 "/>
<text text-anchor="middle" x="589" y="-653.3" font-family="Times,serif" font-size="14.00" fill="#000000">person</text>
<polyline fill="none" stroke="#000000" points="552,-645.5 626,-645.5 "/>
<text text-anchor="middle" x="589" y="-630.3" font-family="Times,serif" font-size="14.00" fill="#000000">place</text>
<polyline fill="none" stroke="#000000" points="552,-622.5 626,-622.5 "/>
<text text-anchor="middle" x="589" y="-607.3" font-family="Times,serif" font-size="14.00" fill="#000000">work</text>
</g>
<!-- getmetadata&#45;&gt;NE -->
<g id="edge39" class="edge">
<title>getmetadata&#45;&gt;NE</title>
<path fill="none" stroke="#000000" d="M532,-907.2919C532,-854.1524 532,-703 532,-703 532,-703 541.9358,-703 541.9358,-703"/>
<polygon fill="#000000" stroke="#000000" points="541.9359,-706.5001 551.9358,-703 541.9358,-699.5001 541.9359,-706.5001"/>
</g>
<!-- docx&#45;&gt;docxfile0 -->
<g id="edge14" class="edge">
<title>docx&#45;&gt;docxfile0</title>
<path fill="none" stroke="#000000" d="M409.5,-622.9728C409.5,-622.9728 409.5,-573.2738 409.5,-573.2738"/>
<polygon fill="#000000" stroke="#000000" points="413.0001,-573.2738 409.5,-563.2738 406.0001,-573.2738 413.0001,-573.2738"/>
</g>
<!-- transkribus&#45;&gt;docxfile0 -->
<g id="edge19" class="edge">
<title>transkribus&#45;&gt;docxfile0</title>
<path fill="none" stroke="#000000" d="M331.25,-630.446C331.25,-630.446 331.25,-573.3304 331.25,-573.3304"/>
<polygon fill="#000000" stroke="#000000" points="334.7501,-573.3304 331.25,-563.3304 327.7501,-573.3304 334.7501,-573.3304"/>
</g>
<!-- collate&#45;&gt;docxfile -->
<g id="edge16" class="edge">
<title>collate&#45;&gt;docxfile</title>
<path fill="none" stroke="#000000" d="M269,-428.4895C269,-428.4895 269,-394.267 269,-394.267"/>
<polygon fill="#000000" stroke="#000000" points="272.5001,-394.267 269,-384.267 265.5001,-394.2671 272.5001,-394.267"/>
</g>
<!-- comment&#45;&gt;docxfile -->
<g id="edge18" class="edge">
<title>comment&#45;&gt;docxfile</title>
<path fill="none" stroke="#000000" d="M464,-428.2546C464,-408.8737 464,-381 464,-381 464,-381 315.678,-381 315.678,-381"/>
<polygon fill="#000000" stroke="#000000" points="315.678,-377.5001 305.678,-381 315.678,-384.5001 315.678,-377.5001"/>
</g>
<!-- curateBibl -->
<g id="node27" class="node">
<title>curateBibl</title>
<path fill="none" stroke="#000000" d="M775.5,-944.5C775.5,-944.5 708.5,-944.5 708.5,-944.5 702.5,-944.5 696.5,-938.5 696.5,-932.5 696.5,-932.5 696.5,-918.5 696.5,-918.5 696.5,-912.5 702.5,-906.5 708.5,-906.5 708.5,-906.5 775.5,-906.5 775.5,-906.5 781.5,-906.5 787.5,-912.5 787.5,-918.5 787.5,-918.5 787.5,-932.5 787.5,-932.5 787.5,-938.5 781.5,-944.5 775.5,-944.5"/>
<text text-anchor="middle" x="742" y="-929.3" font-family="Times,serif" font-size="14.00" fill="#000000">curate</text>
<text text-anchor="middle" x="742" y="-914.3" font-family="Times,serif" font-size="14.00" fill="#000000">bibliography</text>
</g>
<!-- comment&#45;&gt;curateBibl -->
<g id="edge31" class="edge">
<title>comment&#45;&gt;curateBibl</title>
<path fill="none" stroke="#000000" d="M516.1469,-446C583.5796,-446 724.5,-446 724.5,-446 724.5,-446 724.5,-896.4071 724.5,-896.4071"/>
<polygon fill="#000000" stroke="#000000" points="721.0001,-896.4071 724.5,-906.4071 728.0001,-896.4072 721.0001,-896.4071"/>
</g>
<!-- collectNE&#45;&gt;curateNE -->
<g id="edge23" class="edge">
<title>collectNE&#45;&gt;curateNE</title>
<path fill="none" stroke="#000000" d="M619,-906.1856C619,-906.1856 619,-873.1757 619,-873.1757"/>
<polygon fill="#000000" stroke="#000000" points="622.5001,-873.1757 619,-863.1757 615.5001,-873.1758 622.5001,-873.1757"/>
</g>
<!-- storeAPIS -->
<g id="node28" class="node">
<title>storeAPIS</title>
<path fill="none" stroke="#000000" d="M646,-789C646,-789 572,-789 572,-789 566,-789 560,-783 560,-777 560,-777 560,-763 560,-763 560,-757 566,-751 572,-751 572,-751 646,-751 646,-751 652,-751 658,-757 658,-763 658,-763 658,-777 658,-777 658,-783 652,-789 646,-789"/>
<text text-anchor="middle" x="609" y="-773.8" font-family="Times,serif" font-size="14.00" fill="#000000">store in</text>
<text text-anchor="middle" x="609" y="-758.8" font-family="Times,serif" font-size="14.00" fill="#000000">APIS instance</text>
</g>
<!-- curateNE&#45;&gt;storeAPIS -->
<g id="edge25" class="edge">
<title>curateNE&#45;&gt;storeAPIS</title>
<path fill="none" stroke="#000000" d="M614,-824.9432C614,-824.9432 614,-799.2495 614,-799.2495"/>
<polygon fill="#000000" stroke="#000000" points="617.5001,-799.2494 614,-789.2495 610.5001,-799.2495 617.5001,-799.2494"/>
</g>
<!-- NEtei -->
<g id="node29" class="node">
<title>NEtei</title>
<polygon fill="none" stroke="#000000" points="752.5,-599.5 752.5,-714.5 841.5,-714.5 841.5,-599.5 752.5,-599.5"/>
<text text-anchor="middle" x="797" y="-699.3" font-family="Times,serif" font-size="14.00" fill="#000000">tei:listEvent</text>
<polyline fill="none" stroke="#000000" points="752.5,-691.5 841.5,-691.5 "/>
<text text-anchor="middle" x="797" y="-676.3" font-family="Times,serif" font-size="14.00" fill="#000000">tei:listOrg</text>
<polyline fill="none" stroke="#000000" points="752.5,-668.5 841.5,-668.5 "/>
<text text-anchor="middle" x="797" y="-653.3" font-family="Times,serif" font-size="14.00" fill="#000000">tei:listPerson</text>
<polyline fill="none" stroke="#000000" points="752.5,-645.5 841.5,-645.5 "/>
<text text-anchor="middle" x="797" y="-630.3" font-family="Times,serif" font-size="14.00" fill="#000000">tei:listPlace</text>
<polyline fill="none" stroke="#000000" points="752.5,-622.5 841.5,-622.5 "/>
<text text-anchor="middle" x="797" y="-607.3" font-family="Times,serif" font-size="14.00" fill="#000000">tei:listbibl</text>
</g>
<!-- curateBibl&#45;&gt;NEtei -->
<g id="edge24" class="edge">
<title>curateBibl&#45;&gt;NEtei</title>
<path fill="none" stroke="#000000" d="M770,-906.1901C770,-906.1901 770,-724.5845 770,-724.5845"/>
<polygon fill="#000000" stroke="#000000" points="773.5001,-724.5845 770,-714.5845 766.5001,-724.5846 773.5001,-724.5845"/>
</g>
<!-- storeAPIS&#45;&gt;NE -->
<g id="edge26" class="edge">
<title>storeAPIS&#45;&gt;NE</title>
<path fill="none" stroke="#000000" d="M593,-750.8311C593,-750.8311 593,-724.7827 593,-724.7827"/>
<polygon fill="#000000" stroke="#000000" points="596.5001,-724.7827 593,-714.7827 589.5001,-724.7828 596.5001,-724.7827"/>
</g>
<!-- tei2 -->
<g id="node31" class="node">
<title>tei2</title>
<polygon fill="#d3d3d3" stroke="#d3d3d3" points="453,-206 367,-206 367,-152 459,-152 459,-200 453,-206"/>
<polyline fill="none" stroke="#d3d3d3" points="453,-206 453,-200 "/>
<polyline fill="none" stroke="#d3d3d3" points="459,-200 453,-200 "/>
<text text-anchor="middle" x="413" y="-182.8" font-family="Times,serif" font-size="14.00" fill="#000000">enriched TEI</text>
<text text-anchor="middle" x="413" y="-167.8" font-family="Times,serif" font-size="14.00" fill="#000000">XML file</text>
</g>
<!-- NEtei&#45;&gt;tei2 -->
<g id="edge28" class="edge">
<title>NEtei&#45;&gt;tei2</title>
<path fill="none" stroke="#000000" d="M777.75,-599.2473C777.75,-476.5441 777.75,-201 777.75,-201 777.75,-201 469.1958,-201 469.1958,-201"/>
<polygon fill="#000000" stroke="#000000" points="469.1959,-197.5001 459.1958,-201 469.1958,-204.5001 469.1959,-197.5001"/>
</g>
<!-- NE&#45;&gt;jpgfile -->
<g id="edge47" class="edge">
<title>NE&#45;&gt;jpgfile</title>
<path fill="none" stroke="#000000" d="M541.7589,-611C541.7589,-611 528,-611 528,-611 528,-611 528,-433.8564 528,-375.7311"/>
<polygon fill="#000000" stroke="#000000" points="541.7589,-614.5001 551.7589,-611 541.7588,-607.5001 541.7589,-614.5001"/>
</g>
<!-- NE&#45;&gt;enrich -->
<g id="edge29" class="edge">
<title>NE&#45;&gt;enrich</title>
<path fill="none" stroke="#000000" d="M585.5,-599.368C585.5,-544.4229 585.5,-470 585.5,-470 585.5,-470 437.6379,-470 437.6379,-470"/>
<polygon fill="#000000" stroke="#000000" points="437.638,-466.5001 427.6379,-470 437.6379,-473.5001 437.638,-466.5001"/>
</g>
<!-- NE&#45;&gt;NEtei -->
<g id="edge27" class="edge">
<title>NE&#45;&gt;NEtei</title>
<path fill="none" stroke="#000000" d="M626.1862,-657C626.1862,-657 742.1751,-657 742.1751,-657"/>
<polygon fill="#000000" stroke="#000000" points="742.1752,-660.5001 752.1751,-657 742.1751,-653.5001 742.1752,-660.5001"/>
</g>
<!-- control output quality -->
<g id="node36" class="node">
<title>control output quality</title>
<path fill="none" stroke="#000000" d="M607,-197C607,-197 489,-197 489,-197 483,-197 477,-191 477,-185 477,-185 477,-173 477,-173 477,-167 483,-161 489,-161 489,-161 607,-161 607,-161 613,-161 619,-167 619,-173 619,-173 619,-185 619,-185 619,-191 613,-197 607,-197"/>
<text text-anchor="middle" x="548" y="-175.3" font-family="Times,serif" font-size="14.00" fill="#000000">control output quality</text>
</g>
<!-- tei2&#45;&gt;control output quality -->
<g id="edge44" class="edge">
<title>tei2&#45;&gt;control output quality</title>
<path fill="none" stroke="#000000" d="M459.0818,-185C459.0818,-185 466.5269,-185 466.5269,-185"/>
<polygon fill="#000000" stroke="#000000" points="466.5269,-188.5001 476.5269,-185 466.5268,-181.5001 466.5269,-188.5001"/>
</g>
<!-- iflicence -->
<g id="node37" class="node">
<title>iflicence</title>
<polygon fill="none" stroke="#000000" points="536,-116 479.0245,-98 536,-80 592.9755,-98 536,-116"/>
<text text-anchor="middle" x="536" y="-94.3" font-family="Times,serif" font-size="14.00" fill="#000000">licence?</text>
</g>
<!-- tei2&#45;&gt;iflicence -->
<g id="edge48" class="edge">
<title>tei2&#45;&gt;iflicence</title>
<path fill="none" stroke="#000000" d="M459.1506,-156C494.0524,-156 536,-156 536,-156 536,-156 536,-126.0336 536,-126.0336"/>
<polygon fill="#000000" stroke="#000000" points="539.5001,-126.0336 536,-116.0336 532.5001,-126.0337 539.5001,-126.0336"/>
</g>
<!-- tei -->
<g id="node33" class="node">
<title>tei</title>
<polygon fill="none" stroke="#000000" points="406.5,-286.5 337.5,-286.5 337.5,-250.5 412.5,-250.5 412.5,-280.5 406.5,-286.5"/>
<polyline fill="none" stroke="#000000" points="406.5,-286.5 406.5,-280.5 "/>
<polyline fill="none" stroke="#000000" points="412.5,-280.5 406.5,-280.5 "/>
<text text-anchor="middle" x="375" y="-264.8" font-family="Times,serif" font-size="14.00" fill="#000000">TEI XML</text>
</g>
<!-- transformdocx&#45;&gt;tei -->
<g id="edge34" class="edge">
<title>transformdocx&#45;&gt;tei</title>
<path fill="none" stroke="#000000" d="M319.1019,-268C319.1019,-268 327.3287,-268 327.3287,-268"/>
<polygon fill="#000000" stroke="#000000" points="327.3288,-271.5001 337.3287,-268 327.3287,-264.5001 327.3288,-271.5001"/>
</g>
<!-- transformtei2tei -->
<g id="node35" class="node">
<title>transformtei2tei</title>
<path fill="none" stroke="#000000" d="M531.5,-286.5C531.5,-286.5 442.5,-286.5 442.5,-286.5 436.5,-286.5 430.5,-280.5 430.5,-274.5 430.5,-274.5 430.5,-262.5 430.5,-262.5 430.5,-256.5 436.5,-250.5 442.5,-250.5 442.5,-250.5 531.5,-250.5 531.5,-250.5 537.5,-250.5 543.5,-256.5 543.5,-262.5 543.5,-262.5 543.5,-274.5 543.5,-274.5 543.5,-280.5 537.5,-286.5 531.5,-286.5"/>
<text text-anchor="middle" x="487" y="-264.8" font-family="Times,serif" font-size="14.00" fill="#000000">run custom XSL</text>
</g>
<!-- tei&#45;&gt;transformtei2tei -->
<g id="edge42" class="edge">
<title>tei&#45;&gt;transformtei2tei</title>
<path fill="none" stroke="#000000" d="M412.6059,-268C412.6059,-268 420.3502,-268 420.3502,-268"/>
<polygon fill="#000000" stroke="#000000" points="420.3502,-271.5001 430.3502,-268 420.3501,-264.5001 420.3502,-271.5001"/>
</g>
<!-- transformxml2tei2&#45;&gt;tei2 -->
<g id="edge41" class="edge">
<title>transformxml2tei2&#45;&gt;tei2</title>
<path fill="none" stroke="#000000" d="M136,-250.3883C136,-224.2362 136,-179 136,-179 136,-179 356.9481,-179 356.9481,-179"/>
<polygon fill="#000000" stroke="#000000" points="356.9482,-182.5001 366.9481,-179 356.9481,-175.5001 356.9482,-182.5001"/>
</g>
<!-- transformtei2tei&#45;&gt;tei2 -->
<g id="edge43" class="edge">
<title>transformtei2tei&#45;&gt;tei2</title>
<path fill="none" stroke="#000000" d="M444.75,-250.3883C444.75,-250.3883 444.75,-216.2631 444.75,-216.2631"/>
<polygon fill="#000000" stroke="#000000" points="448.2501,-216.2631 444.75,-206.2631 441.2501,-216.2632 448.2501,-216.2631"/>
</g>
<!-- control output quality&#45;&gt;tei2 -->
<g id="edge45" class="edge">
<title>control output quality&#45;&gt;tei2</title>
<path fill="none" stroke="#000000" d="M476.9419,-173C476.9419,-173 469.328,-173 469.328,-173"/>
<polygon fill="#000000" stroke="#000000" points="469.328,-169.5001 459.328,-173 469.328,-176.5001 469.328,-169.5001"/>
</g>
<!-- pub -->
<g id="node38" class="node">
<title>pub</title>
<path fill="none" stroke="#000000" d="M791,-116C791,-116 687,-116 687,-116 681,-116 675,-110 675,-104 675,-104 675,-92 675,-92 675,-86 681,-80 687,-80 687,-80 791,-80 791,-80 797,-80 803,-86 803,-92 803,-92 803,-104 803,-104 803,-110 797,-116 791,-116"/>
<text text-anchor="middle" x="739" y="-94.3" font-family="Times,serif" font-size="14.00" fill="#000000">publish and deploy</text>
</g>
<!-- iflicence&#45;&gt;pub -->
<g id="edge49" class="edge">
<title>iflicence&#45;&gt;pub</title>
<path fill="none" stroke="#000000" d="M593.087,-98C593.087,-98 664.8447,-98 664.8447,-98"/>
<polygon fill="#000000" stroke="#000000" points="664.8447,-101.5001 674.8447,-98 664.8446,-94.5001 664.8447,-101.5001"/>
</g>
<!-- dolicence -->
<g id="node39" class="node">
<title>dolicence</title>
<path fill="none" stroke="#000000" d="M584,-40C584,-40 488,-40 488,-40 482,-40 476,-34 476,-28 476,-28 476,-16 476,-16 476,-10 482,-4 488,-4 488,-4 584,-4 584,-4 590,-4 596,-10 596,-16 596,-16 596,-28 596,-28 596,-34 590,-40 584,-40"/>
<text text-anchor="middle" x="536" y="-18.3" font-family="Times,serif" font-size="14.00" fill="#000000">push for licencing</text>
</g>
<!-- iflicence&#45;&gt;dolicence -->
<g id="edge50" class="edge">
<title>iflicence&#45;&gt;dolicence</title>
<path fill="none" stroke="#000000" d="M517.0041,-85.7893C517.0041,-85.7893 517.0041,-50.136 517.0041,-50.136"/>
<polygon fill="#000000" stroke="#000000" points="520.5042,-50.136 517.0041,-40.136 513.5042,-50.136 520.5042,-50.136"/>
</g>
<!-- pub&#45;&gt;end -->
<g id="edge52" class="edge">
<title>pub&#45;&gt;end</title>
<path fill="none" stroke="#000000" d="M685.5,-79.9891C685.5,-79.9891 685.5,-50.9422 685.5,-50.9422"/>
<polygon fill="#000000" stroke="#000000" points="689.0001,-50.9422 685.5,-40.9422 682.0001,-50.9422 689.0001,-50.9422"/>
</g>
<!-- dolicence&#45;&gt;iflicence -->
<g id="edge51" class="edge">
<title>dolicence&#45;&gt;iflicence</title>
<path fill="none" stroke="#000000" d="M554.9959,-40.0109C554.9959,-40.0109 554.9959,-75.5777 554.9959,-75.5777"/>
<polygon fill="#000000" stroke="#000000" points="551.496,-75.5777 554.9959,-85.5777 558.496,-75.5778 551.496,-75.5777"/>
</g>
</g>
</svg>
