<!-- Generated by graphviz version 2.40.1 (0)
 --><!-- Title: mrpdeploy Pages: 1 --><svg xmlns="http://www.w3.org/2000/svg" xmlns:xlink="http://www.w3.org/1999/xlink" width="1061pt" height="771pt" viewBox="0.00 0.00 1061.00 771.00">
<g id="graph0" class="graph" transform="scale(1 1) rotate(0) translate(4 767)">
<title>mrpdeploy</title>
<polygon fill="#ffffff" stroke="transparent" points="-4,4 -4,-767 1057,-767 1057,4 -4,4"/>
<g id="clust1" class="cluster">
<title>cluster_verlag</title>
<polygon fill="none" stroke="#000000" points="165.1129,-567.9969 165.1129,-688.9969 340.1129,-688.9969 340.1129,-567.9969 165.1129,-567.9969"/>
<text text-anchor="middle" x="252.6129" y="-668.9969" font-family="Times,serif" font-size="20.00" fill="#000000">«device»</text>
<text text-anchor="middle" x="252.6129" y="-646.9969" font-family="Times,serif" font-size="20.00" fill="#000000">:hw.oeaw.ac.at</text>
</g>
<g id="clust2" class="cluster">
<title>cluster_arche</title>
<polygon fill="none" stroke="#000000" points="649.8719,-111.8168 649.8719,-324.8168 1052.8719,-324.8168 1052.8719,-111.8168 649.8719,-111.8168"/>
<text text-anchor="middle" x="851.3719" y="-304.8168" font-family="Times,serif" font-size="20.00" fill="#000000">«device»</text>
<text text-anchor="middle" x="851.3719" y="-282.8168" font-family="Times,serif" font-size="20.00" fill="#000000">:arche.acdh.oeaw.ac.at</text>
</g>
<g id="clust3" class="cluster">
<title>cluster_webapp</title>
<polygon fill="none" stroke="#000000" points="-.0112,-279.5527 -.0112,-434.5527 284.9888,-434.5527 284.9888,-279.5527 -.0112,-279.5527"/>
<text text-anchor="middle" x="142.4888" y="-414.5527" font-family="Times,serif" font-size="20.00" fill="#000000">«device»</text>
<text text-anchor="middle" x="142.4888" y="-392.5527" font-family="Times,serif" font-size="20.00" fill="#000000">:mrptestapp.acdh-dev.oeaw.ac.at</text>
</g>
<g id="clust4" class="cluster">
<title>cluster_datacuration</title>
<polygon fill="none" stroke="#000000" points="402.8116,-350.7285 402.8116,-529.7285 571.8116,-529.7285 571.8116,-350.7285 402.8116,-350.7285"/>
<text text-anchor="middle" x="487.3116" y="-509.7285" font-family="Times,serif" font-size="20.00" fill="#000000">«device»</text>
<text text-anchor="middle" x="487.3116" y="-487.7285" font-family="Times,serif" font-size="20.00" fill="#000000">:local machines</text>
</g>
<g id="clust5" class="cluster">
<title>cluster_datacur</title>
<polygon fill="none" stroke="#000000" points="410.9459,-358.8524 410.9459,-469.8524 563.9459,-469.8524 563.9459,-358.8524 410.9459,-358.8524"/>
<text text-anchor="middle" x="487.4459" y="-449.8524" font-family="Times,serif" font-size="20.00" fill="#000000">data curation</text>
</g>
<g id="clust6" class="cluster">
<title>cluster_transkribus</title>
<polygon fill="none" stroke="#000000" points="376.0429,-539.0234 376.0429,-643.0234 515.0429,-643.0234 515.0429,-539.0234 376.0429,-539.0234"/>
<text text-anchor="middle" x="445.5429" y="-623.0234" font-family="Times,serif" font-size="20.00" fill="#000000">«device»</text>
<text text-anchor="middle" x="445.5429" y="-601.0234" font-family="Times,serif" font-size="20.00" fill="#000000">:transkribus.eu</text>
</g>
<g id="clust7" class="cluster">
<title>cluster_biblio</title>
<polygon fill="none" stroke="#000000" points="504.8989,-659.3601 504.8989,-763.3601 661.8989,-763.3601 661.8989,-659.3601 504.8989,-659.3601"/>
<text text-anchor="middle" x="583.3989" y="-743.3601" font-family="Times,serif" font-size="20.00" fill="#000000">«device»</text>
<text text-anchor="middle" x="583.3989" y="-721.3601" font-family="Times,serif" font-size="20.00" fill="#000000">:zotero.org</text>
</g>
<g id="clust8" class="cluster">
<title>cluster_apisinstance</title>
<polygon fill="none" stroke="#000000" points="200.0116,-150.5371 200.0116,-271.5371 389.0116,-271.5371 389.0116,-150.5371 200.0116,-150.5371"/>
<text text-anchor="middle" x="294.5116" y="-251.5371" font-family="Times,serif" font-size="20.00" fill="#000000">«device»</text>
<text text-anchor="middle" x="294.5116" y="-229.5371" font-family="Times,serif" font-size="20.00" fill="#000000">:mpr.acdh.oeaw.ac.at</text>
</g>
<g id="clust9" class="cluster">
<title>cluster_versioning</title>
<polygon fill="none" stroke="#000000" points="667.2431,-503.5043 667.2431,-609.5043 878.2431,-609.5043 878.2431,-503.5043 667.2431,-503.5043"/>
<text text-anchor="middle" x="772.7431" y="-589.5043" font-family="Times,serif" font-size="20.00" fill="#000000">«device»</text>
<text text-anchor="middle" x="772.7431" y="-567.5043" font-family="Times,serif" font-size="20.00" fill="#000000">:gitlab.com/acdh-oeaw/</text>
</g>
<g id="clust10" class="cluster">
<title>cluster_external</title>
<polygon fill="none" stroke="#000000" points="397.8081,-181.7104 397.8081,-342.7104 641.8081,-342.7104 641.8081,-181.7104 397.8081,-181.7104"/>
<text text-anchor="middle" x="519.8081" y="-322.7104" font-family="Times,serif" font-size="20.00" fill="#000000">«device»</text>
<text text-anchor="middle" x="519.8081" y="-300.7104" font-family="Times,serif" font-size="20.00" fill="#000000">:various external</text>
</g>
<g id="clust11" class="cluster">
<title>cluster_print</title>
<polygon fill="none" stroke="#000000" points="909.5836,.2668 909.5836,-103.7332 1020.5836,-103.7332 1020.5836,.2668 909.5836,.2668"/>
<text text-anchor="middle" x="965.0836" y="-83.7332" font-family="Times,serif" font-size="20.00" fill="#000000">«device»</text>
<text text-anchor="middle" x="965.0836" y="-61.7332" font-family="Times,serif" font-size="20.00" fill="#000000">:paper</text>
</g>
<!-- xml -->
<g id="node1" class="node">
<title>xml</title>
<polygon fill="none" stroke="#000000" points="331.7633,-628.8274 176.7633,-628.8274 172.7633,-624.8274 172.7633,-575.8274 327.7633,-575.8274 331.7633,-579.8274 331.7633,-628.8274"/>
<polyline fill="none" stroke="#000000" points="327.7633,-624.8274 172.7633,-624.8274 "/>
<polyline fill="none" stroke="#000000" points="327.7633,-624.8274 327.7633,-575.8274 "/>
<polyline fill="none" stroke="#000000" points="327.7633,-624.8274 331.7633,-628.8274 "/>
<text text-anchor="middle" x="252.2633" y="-613.6274" font-family="Times,serif" font-size="14.00" fill="#000000">serves generic XML data</text>
<text text-anchor="middle" x="252.2633" y="-598.6274" font-family="Times,serif" font-size="14.00" fill="#000000">from retro-digitization</text>
<text text-anchor="middle" x="252.2633" y="-583.6274" font-family="Times,serif" font-size="14.00" fill="#000000"> using XSL</text>
</g>
<!-- __0:cluster_datacur -->
<!-- xml-__0:cluster_datacur -->
<g id="edge15" class="edge">
<title>xml--__0:cluster_datacur</title>
<path fill="none" stroke="#000000" d="M285.4604,-575.7939C319.6472,-548.4694 373.948,-505.0682 417.6418,-470.1449"/>
</g>
<!-- arche -->
<g id="node3" class="node">
<title>arche</title>
<polygon fill="none" stroke="#000000" points="894.0816,-188.2589 662.0816,-188.2589 658.0816,-184.2589 658.0816,-120.2589 890.0816,-120.2589 894.0816,-124.2589 894.0816,-188.2589"/>
<polyline fill="none" stroke="#000000" points="890.0816,-184.2589 658.0816,-184.2589 "/>
<polyline fill="none" stroke="#000000" points="890.0816,-184.2589 890.0816,-120.2589 "/>
<polyline fill="none" stroke="#000000" points="890.0816,-184.2589 894.0816,-188.2589 "/>
<text text-anchor="middle" x="776.0816" y="-173.0589" font-family="Times,serif" font-size="14.00" fill="#000000">Fedora Commons 4</text>
<text text-anchor="middle" x="776.0816" y="-158.0589" font-family="Times,serif" font-size="14.00" fill="#000000">A Resource Centre for the HumanitiEs</text>
<text text-anchor="middle" x="776.0816" y="-143.0589" font-family="Times,serif" font-size="14.00" fill="#000000">OeAW long-term</text>
<text text-anchor="middle" x="776.0816" y="-128.0589" font-family="Times,serif" font-size="14.00" fill="#000000">research data repository</text>
</g>
<!-- dissemination -->
<g id="node4" class="node">
<title>dissemination</title>
<polygon fill="none" stroke="#000000" points="1045.1909,-264.3879 795.1909,-264.3879 791.1909,-260.3879 791.1909,-196.3879 1041.1909,-196.3879 1045.1909,-200.3879 1045.1909,-264.3879"/>
<polyline fill="none" stroke="#000000" points="1041.1909,-260.3879 791.1909,-260.3879 "/>
<polyline fill="none" stroke="#000000" points="1041.1909,-260.3879 1041.1909,-196.3879 "/>
<polyline fill="none" stroke="#000000" points="1041.1909,-260.3879 1045.1909,-264.3879 "/>
<text text-anchor="middle" x="918.1909" y="-249.1879" font-family="Times,serif" font-size="14.00" fill="#000000">dissemination services</text>
<text text-anchor="middle" x="918.1909" y="-234.1879" font-family="Times,serif" font-size="14.00" fill="#000000">TEI to [html, txt, docx, pdf, RDF, ttl, …]</text>
<text text-anchor="middle" x="918.1909" y="-219.1879" font-family="Times,serif" font-size="14.00" fill="#000000">IIIF for images</text>
<text text-anchor="middle" x="918.1909" y="-204.1879" font-family="Times,serif" font-size="14.00" fill="#000000">sustainable</text>
</g>
<!-- arche-dissemination -->
<g id="edge2" class="edge">
<title>arche--dissemination</title>
<path fill="none" stroke="#000000" d="M839.6545,-188.3154C844.532,-190.9283 849.457,-193.5667 854.3363,-196.1805"/>
</g>
<!-- exist -->
<g id="node5" class="node">
<title>exist</title>
<polygon fill="none" stroke="#000000" points="96.6476,-374.3192 23.6476,-374.3192 19.6476,-370.3192 19.6476,-336.3192 92.6476,-336.3192 96.6476,-340.3192 96.6476,-374.3192"/>
<polyline fill="none" stroke="#000000" points="92.6476,-370.3192 19.6476,-370.3192 "/>
<polyline fill="none" stroke="#000000" points="92.6476,-370.3192 92.6476,-336.3192 "/>
<polyline fill="none" stroke="#000000" points="92.6476,-370.3192 96.6476,-374.3192 "/>
<text text-anchor="middle" x="58.1476" y="-359.1192" font-family="Times,serif" font-size="14.00" fill="#000000">eXist-db</text>
<text text-anchor="middle" x="58.1476" y="-344.1192" font-family="Times,serif" font-size="14.00" fill="#000000">serves TEI</text>
</g>
<!-- fancystuff -->
<g id="node6" class="node">
<title>fancystuff</title>
<polygon fill="none" stroke="#000000" points="264.8299,-340.2862 114.8299,-340.2862 110.8299,-336.2862 110.8299,-287.2862 260.8299,-287.2862 264.8299,-291.2862 264.8299,-340.2862"/>
<polyline fill="none" stroke="#000000" points="260.8299,-336.2862 110.8299,-336.2862 "/>
<polyline fill="none" stroke="#000000" points="260.8299,-336.2862 260.8299,-287.2862 "/>
<polyline fill="none" stroke="#000000" points="260.8299,-336.2862 264.8299,-340.2862 "/>
<text text-anchor="middle" x="187.8299" y="-325.0862" font-family="Times,serif" font-size="14.00" fill="#000000">REST API, network viz</text>
<text text-anchor="middle" x="187.8299" y="-310.0862" font-family="Times,serif" font-size="14.00" fill="#000000">calendar views</text>
<text text-anchor="middle" x="187.8299" y="-295.0862" font-family="Times,serif" font-size="14.00" fill="#000000">curation intense</text>
</g>
<!-- exist-fancystuff -->
<g id="edge3" class="edge">
<title>exist--fancystuff</title>
<path fill="none" stroke="#000000" d="M96.7055,-342.9704C101.1852,-341.5357 105.8663,-340.0364 110.6403,-338.5075"/>
</g>
<!-- MS Word\n.docx -->
<g id="node7" class="node">
<title>MS Word\n.docx</title>
<polygon fill="none" stroke="#000000" points="491.6882,-431.8087 422.6882,-431.8087 418.6882,-427.8087 418.6882,-377.8087 487.6882,-377.8087 491.6882,-381.8087 491.6882,-431.8087"/>
<polyline fill="none" stroke="#000000" points="487.6882,-427.8087 418.6882,-427.8087 "/>
<polyline fill="none" stroke="#000000" points="487.6882,-427.8087 487.6882,-377.8087 "/>
<polyline fill="none" stroke="#000000" points="487.6882,-427.8087 491.6882,-431.8087 "/>
<text text-anchor="middle" x="455.1882" y="-408.6087" font-family="Times,serif" font-size="14.00" fill="#000000">MS Word</text>
<text text-anchor="middle" x="455.1882" y="-393.6087" font-family="Times,serif" font-size="14.00" fill="#000000">.docx</text>
</g>
<!-- TEI\n.xml -->
<g id="node8" class="node">
<title>TEI\n.xml</title>
<polygon fill="#c0c0c0" stroke="#c0c0c0" points="549.9722,-420.785 501.9722,-420.785 501.9722,-366.785 555.9722,-366.785 555.9722,-414.785 549.9722,-420.785"/>
<polyline fill="none" stroke="#c0c0c0" points="549.9722,-420.785 549.9722,-414.785 "/>
<polyline fill="none" stroke="#c0c0c0" points="555.9722,-414.785 549.9722,-414.785 "/>
<text text-anchor="middle" x="528.9722" y="-397.585" font-family="Times,serif" font-size="14.00" fill="#000000">TEI</text>
<text text-anchor="middle" x="528.9722" y="-382.585" font-family="Times,serif" font-size="14.00" fill="#000000">.xml</text>
</g>
<!-- MS Word\n.docx-TEI\n.xml -->
<g id="edge4" class="edge">
<title>MS Word\n.docx--TEI\n.xml</title>
<path fill="none" stroke="#000000" d="M492.0802,-399.2969C492.1837,-399.2814 492.2873,-399.2659 492.3909,-399.2504"/>
<polygon fill="#000000" stroke="#000000" points="492.5437,-402.7666 501.9167,-397.8272 491.5093,-395.8434 492.5437,-402.7666"/>
</g>
<!-- transkribus -->
<g id="node9" class="node">
<title>transkribus</title>
<polygon fill="none" stroke="#000000" points="505.854,-583.0649 388.854,-583.0649 384.854,-579.0649 384.854,-547.0649 501.854,-547.0649 505.854,-551.0649 505.854,-583.0649"/>
<polyline fill="none" stroke="#000000" points="501.854,-579.0649 384.854,-579.0649 "/>
<polyline fill="none" stroke="#000000" points="501.854,-579.0649 501.854,-547.0649 "/>
<polyline fill="none" stroke="#000000" points="501.854,-579.0649 505.854,-583.0649 "/>
<text text-anchor="middle" x="445.354" y="-561.3649" font-family="Times,serif" font-size="14.00" fill="#000000">HTR transcription</text>
</g>
<!-- __3:cluster_datacur -->
<!-- transkribus-__3:cluster_datacur -->
<g id="edge18" class="edge">
<title>transkribus--__3:cluster_datacur</title>
<path fill="none" stroke="#000000" d="M450.4313,-546.8854C455.7446,-527.8607 464.3521,-497.041 471.9301,-469.9078"/>
</g>
<!-- zotero -->
<g id="node10" class="node">
<title>zotero</title>
<polygon fill="none" stroke="#000000" points="654.3007,-703.2148 517.3007,-703.2148 513.3007,-699.2148 513.3007,-667.2148 650.3007,-667.2148 654.3007,-671.2148 654.3007,-703.2148"/>
<polyline fill="none" stroke="#000000" points="650.3007,-699.2148 513.3007,-699.2148 "/>
<polyline fill="none" stroke="#000000" points="650.3007,-699.2148 650.3007,-667.2148 "/>
<polyline fill="none" stroke="#000000" points="650.3007,-699.2148 654.3007,-703.2148 "/>
<text text-anchor="middle" x="583.8007" y="-681.5148" font-family="Times,serif" font-size="14.00" fill="#000000">bibliography curation</text>
</g>
<!-- __4:cluster_datacur -->
<!-- zotero-__4:cluster_datacur -->
<g id="edge19" class="edge">
<title>zotero--__4:cluster_datacur</title>
<path fill="none" stroke="#000000" d="M577.329,-667.0222C563.2147,-627.3456 529.1781,-531.6656 507.2749,-470.0937"/>
</g>
<!-- mpr -->
<g id="node11" class="node">
<title>mpr</title>
<polygon fill="none" stroke="#000000" points="345.0266,-211.1758 248.0266,-211.1758 244.0266,-207.1758 244.0266,-158.1758 341.0266,-158.1758 345.0266,-162.1758 345.0266,-211.1758"/>
<polyline fill="none" stroke="#000000" points="341.0266,-207.1758 244.0266,-207.1758 "/>
<polyline fill="none" stroke="#000000" points="341.0266,-207.1758 341.0266,-158.1758 "/>
<polyline fill="none" stroke="#000000" points="341.0266,-207.1758 345.0266,-211.1758 "/>
<text text-anchor="middle" x="294.5266" y="-195.9758" font-family="Times,serif" font-size="14.00" fill="#000000">django-based</text>
<text text-anchor="middle" x="294.5266" y="-180.9758" font-family="Times,serif" font-size="14.00" fill="#000000">APIS</text>
<text text-anchor="middle" x="294.5266" y="-165.9758" font-family="Times,serif" font-size="14.00" fill="#000000">entity database</text>
</g>
<!-- mprfancystuff -->
<g id="edge13" class="edge">
<title>mpr--fancystuff</title>
<path fill="none" stroke="#000000" stroke-dasharray="1,5" d="M272.419,-211.4275C254.1072,-233.5861 228.2132,-264.9197 209.9092,-287.0687"/>
<text text-anchor="middle" x="209.6641" y="-253.0481" font-family="Times,serif" font-size="14.00" fill="#000000">ids aligned</text>
</g>
<!-- __5:cluster_datacur -->
<!-- mpr__5:cluster_datacur -->
<g id="edge20" class="edge">
<title>mpr--__5:cluster_datacur</title>
<path fill="none" stroke="#000000" d="M317.0344,-211.4721C347.151,-247.3268 401.3039,-311.7976 440.4963,-358.4574"/>
</g>
<!-- __6:cluster_external -->
<!-- mpr__6:cluster_external -->
<g id="edge21" class="edge">
<title>mpr--__6:cluster_external</title>
<path fill="none" stroke="#000000" stroke-dasharray="1,5" d="M345.0842,-202.0761C360.9109,-207.5231 379.1157,-213.7886 397.6666,-220.1732"/>
<text text-anchor="middle" x="371.3754" y="-199.9246" font-family="Times,serif" font-size="14.00" fill="#000000">ids aligned</text>
</g>
<!-- gitlab -->
<g id="node12" class="node">
<title>gitlab</title>
<polygon fill="none" stroke="#000000" points="869.825,-549.0935 678.825,-549.0935 674.825,-545.0935 674.825,-511.0935 865.825,-511.0935 869.825,-515.0935 869.825,-549.0935"/>
<polyline fill="none" stroke="#000000" points="865.825,-545.0935 674.825,-545.0935 "/>
<polyline fill="none" stroke="#000000" points="865.825,-545.0935 865.825,-511.0935 "/>
<polyline fill="none" stroke="#000000" points="865.825,-545.0935 869.825,-549.0935 "/>
<text text-anchor="middle" x="772.325" y="-533.8935" font-family="Times,serif" font-size="14.00" fill="#000000">git for versioning/collaboration</text>
<text text-anchor="middle" x="772.325" y="-518.8935" font-family="Times,serif" font-size="14.00" fill="#000000">data and application</text>
</g>
<!-- __7:cluster_datacur -->
<!-- gitlab__7:cluster_datacur -->
<g id="edge22" class="edge">
<title>gitlab--__7:cluster_datacur</title>
<path fill="none" stroke="#000000" d="M725.283,-510.9813C681.5074,-493.1961 615.484,-466.3719 564.0986,-445.495"/>
</g>
<!-- links -->
<g id="node13" class="node">
<title>links</title>
<polygon fill="none" stroke="#000000" points="406.2551,-190.5624 406.2551,-282.5624 634.2551,-282.5624 634.2551,-190.5624 406.2551,-190.5624"/>
<text text-anchor="middle" x="520.2551" y="-267.3624" font-family="Times,serif" font-size="14.00" fill="#000000">anno.onb.ac.at for newspaper articles</text>
<polyline fill="none" stroke="#000000" points="406.2551,-259.5624 634.2551,-259.5624 "/>
<text text-anchor="middle" x="520.2551" y="-244.3624" font-family="Times,serif" font-size="14.00" fill="#000000">authority files (GND/GeoNames)</text>
<polyline fill="none" stroke="#000000" points="406.2551,-236.5624 634.2551,-236.5624 "/>
<text text-anchor="middle" x="520.2551" y="-221.3624" font-family="Times,serif" font-size="14.00" fill="#000000">'Linked Open Data cloud’</text>
<polyline fill="none" stroke="#000000" points="406.2551,-213.5624 634.2551,-213.5624 "/>
<text text-anchor="middle" x="520.2551" y="-198.3624" font-family="Times,serif" font-size="14.00" fill="#000000">...</text>
</g>
<!-- __8:cluster_datacur -->
<!-- links__8:cluster_datacur -->
<g id="edge23" class="edge">
<title>links--__8:cluster_datacur</title>
<path fill="none" stroke="#000000" d="M511.7205,-282.8105C507.4295,-306.0631 502.197,-334.4175 497.6902,-358.8394"/>
</g>
<!-- print -->
<g id="node14" class="node">
<title>print</title>
<polygon fill="none" stroke="#000000" points="1012.4338,-43.6535 921.4338,-43.6535 917.4338,-39.6535 917.4338,-7.6535 1008.4338,-7.6535 1012.4338,-11.6535 1012.4338,-43.6535"/>
<polyline fill="none" stroke="#000000" points="1008.4338,-39.6535 917.4338,-39.6535 "/>
<polyline fill="none" stroke="#000000" points="1008.4338,-39.6535 1008.4338,-7.6535 "/>
<polyline fill="none" stroke="#000000" points="1008.4338,-39.6535 1012.4338,-43.6535 "/>
<text text-anchor="middle" x="964.9338" y="-21.9535" font-family="Times,serif" font-size="14.00" fill="#000000">book derivate</text>
</g>
<!-- printarche -->
<g id="edge12" class="edge">
<title>print--arche</title>
<path fill="none" stroke="#000000" d="M938.2764,-43.8068C909.2993,-63.5398 862.326,-95.5278 826.3698,-120.0134"/>
</g>
<!-- __1:cluster_datacur -->
<!-- __1:cluster_datacurarche -->
<g id="edge16" class="edge">
<title>__1:cluster_datacur--arche</title>
<path fill="none" stroke="#000000" d="M549.3655,-358.5558C606.6789,-306.9099 690.0665,-231.7683 738.1134,-188.4725"/>
</g>
<!-- __2:cluster_datacur -->
<!-- __2:cluster_datacurexist -->
<g id="edge17" class="edge">
<title>__2:cluster_datacur--exist</title>
<path fill="none" stroke="#000000" d="M410.696,-403.7985C318.4467,-391.1132 167.2686,-370.3245 96.6953,-360.6199"/>
</g>
</g>
</svg>