<?xml version="1.0" encoding="UTF-8"?>
<!-- Generated by graphviz version 2.38.0 (20140413.2041)
 --><!-- Title: mrpretro Pages: 1 -->
<svg xmlns="http://www.w3.org/2000/svg" xmlns:xlink="http://www.w3.org/1999/xlink" width="935pt" height="766pt" viewBox="0.00 0.00 935.23 766.29">
<g id="graph0" class="graph" transform="scale(1 1) rotate(0) translate(4 762.294)">
<title>mrpretro</title>
<polygon fill="#fafafa" fill-opacity="0.2" stroke="none" points="-4,4 -4,-762.294 931.227,-762.294 931.227,4 -4,4"/>
<g id="clust1" class="cluster">
            <title>cluster_verlag</title>
<polygon fill="#eee" stroke="black" points="317.593,-375.12 317.593,-677.553 561.593,-677.553 561.593,-375.12 317.593,-375.12"/>
<text text-anchor="middle" x="439.593" y="-657.553" font-family="Helvetica,Arial,sansserif" font-size="20.00">Retro digitization</text>
</g>
<g id="clust2" class="cluster">
            <title>cluster_serie3</title>
 <polygon fill="#eee" stroke="black" points="45.5929,-476.467 45.5929,-677.553 309.593,-677.553 309.593,-476.467 45.5929,-476.467"/>
<text text-anchor="middle" x="177.593" y="-657.553" font-family="Helvetica,Arial,sansserif" font-size="20.00">Born digital material</text>
</g>
<!-- sources -->
<g id="node1" class="node">
            <title>sources</title>
<ellipse fill="#efefef" stroke="black" cx="234.593" cy="-731.423" rx="170.326" ry="26.7407"/>
<text text-anchor="middle" x="234.593" y="-735.223" font-family="Helvetica,Arial,sansserif" font-size="14.00">sources</text>
<text text-anchor="middle" x="234.593" y="-720.223" font-family="Helvetica,Arial,sansserif" font-size="14.00">(paper, held by Austrian State Archives)</text>
</g>
<!-- books -->
<g id="node2" class="node">
            <title>books</title>
<ellipse fill="#efefef" stroke="black" cx="438.593" cy="-612.683" rx="113.274" ry="26.7407"/>
<text text-anchor="middle" x="438.593" y="-616.483" font-family="Helvetica,Arial,sansserif" font-size="14.00">printed books</text>
<text text-anchor="middle" x="438.593" y="-601.483" font-family="Helvetica,Arial,sansserif" font-size="14.00">28 vols edited 1970–2015</text>
</g>
<!-- sources->books -->
<g id="edge6" class="edge">
            <title>sources-&gt;books</title>
<path fill="none" stroke="black" d="M278.356,-705.38C310.49,-686.991 354.22,-661.966 387.879,-642.705"/>
<polygon fill="black" stroke="black" points="389.705,-645.693 396.646,-637.688 386.228,-639.617 389.705,-645.693"/>
</g>
<!-- docx -->
<g id="node5" class="node">
            <title>docx</title>
<ellipse fill="#efefef" stroke="black" cx="101.593" cy="-612.683" rx="48.1917" ry="18"/>
<text text-anchor="middle" x="101.593" y="-608.983" font-family="Helvetica,Arial,sansserif" font-size="14.00">MS Word</text>
</g>
<!-- sources->docx -->
<g id="edge5" class="edge">
            <title>sources-&gt;docx</title>
<path fill="none" stroke="black" d="M194.612,-705.203C182.59,-696.945 169.661,-687.359 158.593,-677.553 144.996,-665.507 131.389,-650.404 120.881,-637.91"/>
<polygon fill="black" stroke="black" points="123.524,-635.612 114.455,-630.134 118.128,-640.072 123.524,-635.612"/>
</g>
<!-- transkribus -->
<g id="node6" class="node">
            <title>transkribus</title>
<ellipse fill="#efefef" stroke="black" cx="234.593" cy="-612.683" rx="67.3507" ry="26.7407"/>
<text text-anchor="middle" x="234.593" y="-616.483" font-family="Helvetica,Arial,sansserif" font-size="14.00">transkribus.eu</text>
<text text-anchor="middle" x="234.593" y="-601.483" font-family="Helvetica,Arial,sansserif" font-size="14.00">HTR</text>
</g>
<!-- sources->transkribus -->
<g id="edge4" class="edge">
            <title>sources-&gt;transkribus</title>
<path fill="none" stroke="black" d="M234.593,-704.515C234.593,-688.606 234.593,-667.978 234.593,-650.403"/>
<polygon fill="black" stroke="black" points="238.093,-649.923 234.593,-639.923 231.093,-649.923 238.093,-649.923"/>
</g>
<!-- pdfs -->
<g id="node3" class="node">
            <title>pdfs</title>
<ellipse fill="#efefef" stroke="black" cx="439.593" cy="-511.337" rx="66.4361" ry="37.4533"/>
<text text-anchor="middle" x="439.593" y="-522.637" font-family="Helvetica,Arial,sansserif" font-size="14.00">scans in</text>
<text text-anchor="middle" x="439.593" y="-507.637" font-family="Helvetica,Arial,sansserif" font-size="14.00">PDF format</text>
<text text-anchor="middle" x="439.593" y="-492.637" font-family="Helvetica,Arial,sansserif" font-size="14.00">~18000 pages</text>
</g>
<!-- books->pdfs -->
<g id="edge7" class="edge">
            <title>books-&gt;pdfs</title>
<path fill="none" stroke="black" d="M438.856,-585.581C438.937,-577.478 439.03,-568.285 439.121,-559.217"/>
<polygon fill="black" stroke="black" points="442.622,-559.131 439.223,-549.096 435.622,-559.06 442.622,-559.131"/>
</g>
<!-- xml -->
<g id="node4" class="node">
            <title>xml</title>
<ellipse fill="#efefef" stroke="black" cx="439.593" cy="-409.99" rx="113.689" ry="26.7407"/>
<text text-anchor="middle" x="439.593" y="-413.79" font-family="Helvetica,Arial,sansserif" font-size="14.00">generic XML data</text>
 <a href="https://hw.oeaw.ac.at/ministerrat/">
                <text text-anchor="middle" x="439.593" y="-398.79" font-family="Helvetica,Arial,sansserif" font-size="14.00">hw.oeaw.ac.at/ministerrat/</text>
            </a>
</g>
<!-- pdfs->xml -->
<g id="edge8" class="edge">
            <title>pdfs-&gt;xml</title>
<path fill="none" stroke="black" d="M439.593,-473.626C439.593,-464.981 439.593,-455.772 439.593,-447.152"/>
<polygon fill="black" stroke="black" points="443.093,-447.005 439.593,-437.005 436.093,-447.005 443.093,-447.005"/>
</g>
<!-- tei -->
<g id="node8" class="node">
            <title>tei</title>
<polygon fill="white" stroke="black" points="511.593,-317.12 379.593,-317.12 379.593,-321.12 367.593,-321.12 367.593,-245.12 511.593,-245.12 511.593,-317.12"/>
<polyline fill="none" stroke="black" points="367.593,-317.12 379.593,-317.12 "/>
<text text-anchor="middle" x="439.593" y="-284.92" font-family="Helvetica,Arial,sansserif" font-size="14.00">TEI encoded XML</text>
<text text-anchor="middle" x="439.593" y="-269.92" font-family="Helvetica,Arial,sansserif" font-size="14.00">(one file per session)</text>
</g>
<!-- xml->tei -->
<g id="edge10" class="edge">
            <title>xml-&gt;tei</title>
<path fill="none" stroke="black" d="M439.593,-383.01C439.593,-366.984 439.593,-345.989 439.593,-327.303"/>
<polygon fill="black" stroke="black" points="443.093,-327.206 439.593,-317.206 436.093,-327.206 443.093,-327.206"/>
<text text-anchor="middle" x="453.093" y="-346.42" font-family="Helvetica,Arial,sansserif" font-size="14.00">XSL</text>
</g>
<!-- tools -->
<g id="node9" class="node">
            <title>tools</title>
<ellipse fill="#efefef" stroke="black" cx="245.593" cy="-281.12" rx="86.3847" ry="18"/>
<text text-anchor="middle" x="245.593" y="-277.42" font-family="Helvetica,Arial,sansserif" font-size="14.00">text processing tools</text>
</g>
<!-- xml->tools -->
<g id="edge9" class="edge">
            <title>xml-&gt;tools</title>
<path fill="none" stroke="black" stroke-dasharray="1,5" d="M391.903,-385.412C380.155,-379.163 367.749,-372.179 356.593,-365.12 327.203,-346.524 295.617,-322.469 273.683,-305.047"/>
<polygon fill="black" stroke="black" points="275.769,-302.233 265.774,-298.719 271.396,-307.699 275.769,-302.233"/>
<text text-anchor="middle" x="396.093" y="-353.92" font-family="Helvetica,Arial,sansserif" font-size="14.00">feedback</text>
<text text-anchor="middle" x="396.093" y="-338.92" font-family="Helvetica,Arial,sansserif" font-size="14.00">e.g. word lists</text>
</g>
<!-- markup -->
<g id="node7" class="node">
            <title>markup</title>
<ellipse fill="#efefef" stroke="black" cx="222.593" cy="-511.337" rx="79.3924" ry="26.7407"/>
<text text-anchor="middle" x="222.593" y="-515.137" font-family="Helvetica,Arial,sansserif" font-size="14.00">+ entity plugin</text>
<text text-anchor="middle" x="222.593" y="-500.137" font-family="Helvetica,Arial,sansserif" font-size="14.00">+ dotx stylesheet</text>
</g>
<!-- docx->markup -->
<g id="edge1" class="edge">
            <title>docx-&gt;markup</title>
<path fill="none" stroke="black" d="M120.766,-595.942C138.02,-581.775 163.864,-560.556 185.198,-543.04"/>
<polygon fill="black" stroke="black" points="187.618,-545.581 193.126,-536.53 183.176,-540.171 187.618,-545.581"/>
</g>
<!-- transkribus->markup -->
<g id="edge2" class="edge">
            <title>transkribus-&gt;markup</title>
<path fill="none" stroke="black" d="M231.471,-585.84C230.093,-574.432 228.45,-560.825 226.954,-548.438"/>
<polygon fill="black" stroke="black" points="230.415,-547.903 225.741,-538.395 223.465,-548.743 230.415,-547.903"/>
</g>
<!-- markup->tei -->
<g id="edge3" class="edge">
            <title>markup-&gt;tei</title>
<path fill="none" stroke="black" d="M232.901,-484.52C250.741,-441.002 287.835,-355.758 312.593,-335.12 320.712,-328.352 338.392,-319.93 358.053,-311.807"/>
<polygon fill="black" stroke="black" points="359.557,-314.974 367.513,-307.978 356.93,-308.486 359.557,-314.974"/>
<text text-anchor="middle" x="298.093" y="-406.29" font-family="Helvetica,Arial,sansserif" font-size="14.00">XSL</text>
</g>
<!-- markup->tools -->
<g id="edge12" class="edge">
            <title>markup-&gt;tools</title>
<path fill="none" stroke="black" stroke-dasharray="1,5" d="M225.231,-484.157C229.624,-440.568 238.395,-353.543 242.854,-309.299"/>
<polygon fill="black" stroke="black" points="246.343,-309.577 243.864,-299.276 239.379,-308.875 246.343,-309.577"/>
</g>
<!-- tei->pdfs -->
<g id="edge13" class="edge">
            <title>tei-&gt;pdfs</title>
<path fill="none" stroke="black" d="M507.99,-317.156C529.504,-331.913 550.727,-351.272 562.593,-375.12 574.817,-399.687 576.136,-412.995 562.593,-436.86 549.915,-459.201 527.449,-475.475 505.156,-486.94"/>
<polygon fill="black" stroke="black" points="503.436,-483.885 495.977,-491.409 506.5,-490.178 503.436,-483.885"/>
<text text-anchor="middle" x="673.593" y="-421.29" font-family="Helvetica,Arial,sansserif" font-size="14.00">links to page images</text>
<text text-anchor="middle" x="673.593" y="-406.29" font-family="Helvetica,Arial,sansserif" font-size="14.00">hosted at hw.oeaw.ac.at epub server</text>
<text text-anchor="middle" x="673.593" y="-391.29" font-family="Helvetica,Arial,sansserif" font-size="14.00">(IIIF planned)</text>
</g>
<!-- app -->
<g id="node10" class="node">
            <title>app</title>
<ellipse fill="#efefef" stroke="black" cx="138.593" cy="-160.037" rx="138.686" ry="37.4533"/>
<text text-anchor="middle" x="138.593" y="-171.337" font-family="Helvetica,Arial,sansserif" font-size="14.00">web application</text>
<text text-anchor="middle" x="138.593" y="-156.337" font-family="Helvetica,Arial,sansserif" font-size="14.00">eXist-db hosted</text>
 <a href="https://github.com/skurzinz/mrptestapp">
                <text text-anchor="middle" x="138.593" y="-141.337" font-family="Helvetica,Arial,sansserif" font-size="14.00">github.com/skurzinz/mrptestapp</text>
            </a>
</g>
<!-- tei->app -->
<g id="edge14" class="edge">
            <title>tei-&gt;app</title>
<path fill="none" stroke="black" d="M367.496,-251.596C324.548,-234.605 269.783,-212.939 224.589,-195.059"/>
<polygon fill="black" stroke="black" points="225.684,-191.728 215.098,-191.304 223.109,-198.237 225.684,-191.728"/>
</g>
<!-- ARCHE -->
<g id="node12" class="node">
            <title>ARCHE</title>
<ellipse fill="#efefef" stroke="black" cx="439.593" cy="-160.037" rx="144.5" ry="48.1667"/>
<text text-anchor="middle" x="439.593" y="-178.837" font-family="Helvetica,Arial,sansserif" font-size="14.00">ARCHE repository</text>
<text text-anchor="middle" x="439.593" y="-163.837" font-family="Helvetica,Arial,sansserif" font-size="14.00">fedora commons based</text>
<text text-anchor="middle" x="439.593" y="-148.837" font-family="Helvetica,Arial,sansserif" font-size="14.00">ACDH/ARZ + decentral backups</text>
<text text-anchor="middle" x="439.593" y="-133.837" font-family="Helvetica,Arial,sansserif" font-size="14.00">long term preservation</text>
</g>
<!-- tei->ARCHE -->
<g id="edge16" class="edge">
            <title>tei-&gt;ARCHE</title>
<path fill="none" stroke="black" stroke-dasharray="1,5" d="M439.593,-245.035C439.593,-236.661 439.593,-227.505 439.593,-218.417"/>
<polygon fill="black" stroke="black" points="443.093,-218.23 439.593,-208.23 436.093,-218.23 443.093,-218.23"/>
</g>
<!-- events -->
<g id="node14" class="node">
            <title>events</title>
<ellipse fill="#efefef" stroke="black" cx="764.593" cy="-160.037" rx="162.769" ry="37.4533"/>
<text text-anchor="middle" x="764.593" y="-171.337" font-family="Helvetica,Arial,sansserif" font-size="14.00">extracted event data</text>
<text text-anchor="middle" x="764.593" y="-156.337" font-family="Helvetica,Arial,sansserif" font-size="14.00">dates, sessions, agenda items</text>
 <a href="https://mrptestapp.acdh-dev.oeaw.ac.at/">
                <text text-anchor="middle" x="764.593" y="-141.337" font-family="Helvetica,Arial,sansserif" font-size="14.00">mrptestapp.acdh-dev.oeaw.ac.at</text>
            </a>
</g>
<!-- tei->events -->
<g id="edge18" class="edge">
            <title>tei-&gt;events</title>
<path fill="none" stroke="black" d="M511.721,-253.691C558.365,-236.6 619.575,-214.172 670.09,-195.663"/>
<polygon fill="black" stroke="black" points="671.532,-198.863 679.717,-192.136 669.123,-192.29 671.532,-198.863"/>
</g>
<!-- tools->tei -->
<g id="edge11" class="edge">
            <title>tools-&gt;tei</title>
<path fill="none" stroke="black" d="M332.362,-281.12C340.701,-281.12 349.039,-281.12 357.377,-281.12"/>
<polygon fill="black" stroke="black" points="357.547,-284.62 367.547,-281.12 357.547,-277.62 357.547,-284.62"/>
</g>
<!-- fancystuff -->
<g id="node11" class="node">
            <title>fancystuff</title>
<ellipse fill="#efefef" stroke="black" cx="138.593" cy="-37.4767" rx="78.4777" ry="37.4533"/>
<text text-anchor="middle" x="138.593" y="-48.7767" font-family="Helvetica,Arial,sansserif" font-size="14.00">API, network viz</text>
<text text-anchor="middle" x="138.593" y="-33.7767" font-family="Helvetica,Arial,sansserif" font-size="14.00">calendar views</text>
<text text-anchor="middle" x="138.593" y="-18.7767" font-family="Helvetica,Arial,sansserif" font-size="14.00">curation intense</text>
</g>
<!-- app->fancystuff -->
<g id="edge15" class="edge">
            <title>app-&gt;fancystuff</title>
<path fill="none" stroke="black" d="M138.593,-122.537C138.593,-110.842 138.593,-97.7249 138.593,-85.3932"/>
<polygon fill="black" stroke="black" points="142.093,-85.2678 138.593,-75.2678 135.093,-85.2678 142.093,-85.2678"/>
</g>
<!-- dissemination -->
<g id="node13" class="node">
            <title>dissemination</title>
<ellipse fill="#efefef" stroke="black" cx="439.593" cy="-37.4767" rx="176.554" ry="37.4533"/>
<text text-anchor="middle" x="439.593" y="-48.7767" font-family="Helvetica,Arial,sansserif" font-size="14.00">dissemination services</text>
<text text-anchor="middle" x="439.593" y="-33.7767" font-family="Helvetica,Arial,sansserif" font-size="14.00">TEI to [html, txt, docx, pdf, RDF, ttl, …]</text>
<text text-anchor="middle" x="439.593" y="-18.7767" font-family="Helvetica,Arial,sansserif" font-size="14.00">sustainable</text>
</g>
<!-- ARCHE->dissemination -->
<g id="edge17" class="edge">
            <title>ARCHE-&gt;dissemination</title>
<path fill="none" stroke="black" d="M439.593,-111.734C439.593,-103.105 439.593,-94.1028 439.593,-85.482"/>
<polygon fill="black" stroke="black" points="443.093,-85.2062 439.593,-75.2063 436.093,-85.2063 443.093,-85.2062"/>
</g>
</g>
</svg>